<svg id="Layer_1" data-name="Layer 1" xmlns="http://www.w3.org/2000/svg" viewBox="0 0 578.6 578.6"><path d="M278.5,3.46h22.56a20.42,20.42,0,0,0,2.32.39,299.88,299.88,0,0,1,45.2,5.33,266.71,266.71,0,0,1,64,21.19A281.3,281.3,0,0,1,479.5,75.64a311.32,311.32,0,0,1,46.06,51.62,272.12,272.12,0,0,1,26.61,46.84,264.11,264.11,0,0,1,18.06,58.25c2.36,12.57,4.21,25.22,4.51,38a15.9,15.9,0,0,0,.4,2.34v33.12c-.14.93-.36,1.86-.41,2.8-.11,2.07-.05,4.16-.22,6.23a295.14,295.14,0,0,1-4.82,34.41,267.36,267.36,0,0,1-46.14,105,303,303,0,0,1-29.79,35.09c-19.64,19.94-41.38,37.17-65.83,50.91a265.55,265.55,0,0,1-47.53,20.94,282.51,282.51,0,0,1-74.59,13.49c-1.27.06-2.53.28-3.79.42h-25c-1.18-.15-2.36-.37-3.54-.42a285.12,285.12,0,0,1-44.46-5.54,265.44,265.44,0,0,1-66.64-23A280.15,280.15,0,0,1,106,508.35a317.3,317.3,0,0,1-39.7-40.6,286.51,286.51,0,0,1-20.48-28.38A267.87,267.87,0,0,1,8.28,341.51a301.15,301.15,0,0,1-4-38.14c-.09-2.22-.51-4.42-.77-6.63V281.86c.29-2.77.73-5.54.86-8.31a298.65,298.65,0,0,1,4.92-41.64A266.46,266.46,0,0,1,38.69,151.2,278.94,278.94,0,0,1,69,107.56,321,321,0,0,1,111,66.17a276.28,276.28,0,0,1,59.27-37.35,264.92,264.92,0,0,1,38.15-14.2A289.12,289.12,0,0,1,276.17,3.84,18.84,18.84,0,0,0,278.5,3.46ZM544.06,287.94a254.7,254.7,0,0,0-4.55-48.89A233.9,233.9,0,0,0,524,188.53a243.61,243.61,0,0,0-30.65-51.65,283.3,283.3,0,0,0-33.48-36.28,259,259,0,0,0-46.35-34,236.32,236.32,0,0,0-47.18-20.52,247.07,247.07,0,0,0-59.57-10.63,276.33,276.33,0,0,0-66.17,3.88A237.35,237.35,0,0,0,174.34,62a247.79,247.79,0,0,0-43.89,29.14,286.54,286.54,0,0,0-42.11,42.89A240.59,240.59,0,0,0,35.7,274.31a279.55,279.55,0,0,0,2,51.24,240.46,240.46,0,0,0,16,60.32A243.48,243.48,0,0,0,91.89,449a281.11,281.11,0,0,0,49.85,47.26,239.45,239.45,0,0,0,72,36.45,252.27,252.27,0,0,0,61,10.62,272.57,272.57,0,0,0,44.8-1.22,254,254,0,0,0,40.93-7.84,240,240,0,0,0,83.74-43A283.37,283.37,0,0,0,473,465.26a261.07,261.07,0,0,0,39.17-51.68,236.11,236.11,0,0,0,27.68-76A269,269,0,0,0,544.06,287.94Z"/><path d="M409,109.51A72.4,72.4,0,0,1,412.7,122c2.21,10.52,3.62,21.14,3,31.9-.26,4.7-1,9.37-1.7,14a3.62,3.62,0,0,0,.89,3.44c11.15,12,18.16,26.18,22,42a133.56,133.56,0,0,1,3,42.18,138.37,138.37,0,0,1-5.87,31c-5.87,18.5-17.29,32.75-33.26,43.56-8.44,5.72-17.29,10.64-27,13.84a146.22,146.22,0,0,1-26.37,6c-5.7.77-11.42,1.35-17.63,2.07.84.53,1.37.88,1.91,1.21,4.27,2.67,8.65,5.18,12.77,8.05,8.29,5.77,13,13.93,15.13,23.68a57.94,57.94,0,0,1,1.59,13.53c-.13,7.6-.16,15.2,0,22.8.27,13.35.72,26.7,1.06,40.05a7.47,7.47,0,0,0,1.45,4.2,43,43,0,0,0,13.86,12.7c.34.2.68.42,1,.61,2.79,1.53,2.2,5.59-.2,6.69a12.45,12.45,0,0,1-4.1,1.19c-9.73.74-18.7-1.31-26.79-7-6.44-4.56-9.73-10.63-9.87-18.46,0-2.16,0-4.32,0-6.48q0-23.76,0-47.51a47.71,47.71,0,0,0-.2-4.79c-.64-6.38-4.68-10.08-10.09-12.68a18.27,18.27,0,0,0-1.79-.67,5.5,5.5,0,0,0-.86-.12,10.09,10.09,0,0,0-.24,1.58c0,24.87.05,49.75.18,74.63a67.44,67.44,0,0,0,1.05,10,20,20,0,0,0,4,9.37,25,25,0,0,1,5,11.05,13.47,13.47,0,0,1-2.36.75,7.49,7.49,0,0,1-2.63,0c-5.08-1.09-10.15-2.23-14.82-4.61a26.37,26.37,0,0,1-12.34-13.25,60.32,60.32,0,0,1-5-25q0-32.4,0-64.79v-3.19H283.13v68.22a62.43,62.43,0,0,1-5.2,25.42,27.69,27.69,0,0,1-16.16,15.18,41,41,0,0,1-12.17,2.51,5.07,5.07,0,0,1-4.5-1.95c1.4-2.41,2.71-4.87,4.21-7.19,3.69-5.73,5.33-12.13,6.14-18.75a93.92,93.92,0,0,0,.62-11.25c.06-22,0-44,0-66v-3c-5.53,1.83-9.6,4.8-11.09,10.28a32.56,32.56,0,0,0-1,8.3c-.08,17.36-.05,34.72,0,52.07a33.3,33.3,0,0,1-1.06,8.78c-1.27,4.71-4.21,8.2-7.92,11.14a35.45,35.45,0,0,1-19.7,7.37,56.09,56.09,0,0,1-7.67,0,11.11,11.11,0,0,1-3.92-.95,3.9,3.9,0,0,1-1-6.79c1.37-1.21,2.91-2.24,4.37-3.35,1.85-1.4,3.81-2.68,5.51-4.24A23.05,23.05,0,0,0,220.35,454c0-4.95-.17-9.92-.55-14.85a171,171,0,0,1-.76-22.05,10.19,10.19,0,0,0-.09-1.26c-2.49.63-4.86,1.3-7.27,1.81-12.65,2.67-24.85,1-36.57-4.14a129.49,129.49,0,0,1-12.7-6.72,20.16,20.16,0,0,1-4.69-4A109.85,109.85,0,0,1,143,381a68.78,68.78,0,0,0-9.64-13.4,160.34,160.34,0,0,0-16.7-15.85,11.33,11.33,0,0,1-.91-.78c-1.71-1.68-1.79-3.07-.11-4.75a11,11,0,0,1,7.69-3.44,25.92,25.92,0,0,1,15.56,4.73,59.62,59.62,0,0,1,11.17,10.47c3.9,4.56,7.73,9.18,11.81,13.57A57.43,57.43,0,0,0,180,384.7c9.95,4.58,20.08,5,30.26.93,3.39-1.37,6.57-3.27,9.84-4.93a4,4,0,0,0,2-2.54A34.62,34.62,0,0,1,241.63,357c2.93-1.28,5.89-2.5,8.82-3.76a6,6,0,0,0,2.07-1.32l-7.58-.89a229,229,0,0,1-36-6.85,129.56,129.56,0,0,1-33.49-14.68,78.32,78.32,0,0,1-32.92-40.26,124.56,124.56,0,0,1-7.16-34.87,143.9,143.9,0,0,1,2-36.54,86.9,86.9,0,0,1,17.8-38.57c1.29-1.63,2.59-3.26,4-4.81a2.39,2.39,0,0,0,.57-2.59,82.93,82.93,0,0,1-3.1-29.18,117.4,117.4,0,0,1,7-33c2,.15,3.94.24,5.9.46a114.81,114.81,0,0,1,56,22,11.23,11.23,0,0,1,1.35,1,3.09,3.09,0,0,0,3.29.63,218.7,218.7,0,0,1,37.07-6.28,255.28,255.28,0,0,1,75.32,5.23,3.86,3.86,0,0,0,3.31-.65,203.46,203.46,0,0,1,25-14.15c8.66-4.18,17.94-6.22,27.44-7.36C401.84,110.11,405.35,109.86,409,109.51Z"/></svg>