<svg id="Layer_1" data-name="Layer 1" xmlns="http://www.w3.org/2000/svg" viewBox="0 0 408.02 408.02"><path d="M.4,372.63V35.39a18,18,0,0,0,.77-2.2A41.15,41.15,0,0,1,15.5,9.63C21.32,4.72,28.2,2.26,35.4.4H372.63a12.8,12.8,0,0,0,1.83.71C394.18,5.3,407.6,21.58,407.6,41.54q0,162.59,0,325.19a40.77,40.77,0,0,1-40.88,40.87c-16,0-32.07,0-48.1,0q-138.35,0-276.69,0c-13.18,0-23.79-5.17-32.28-15.1C4.71,386.74,2.26,379.83.4,372.63Zm223.83-26.4v-5.62q0-46.91,0-93.82a98,98,0,0,1,.51-11.5c1.4-11.65,7.94-19.81,18.34-24.57s20.45-3.23,29.6,3.51,12.95,16.29,12.93,27.58q-.11,49.69,0,99.39v5h60.84V230.4a63.73,63.73,0,0,0-5-25.54c-11.49-26.48-31.53-42.37-60.34-45.13-22.19-2.13-40,7.7-54.09,24.58-.68.82-1.43,1.59-3,3.28v-24H163.65V346.23Zm-102.12,0V163.6H61.79V346.23Zm6.41-254c.14-20.12-16.18-36.95-36.4-36.71C71.41,55.76,55.64,70.93,55.58,92s16.09,36.16,36.14,36.47A36.36,36.36,0,0,0,128.52,92.22Z"/></svg>