<svg id="Слой_1" data-name="Слой 1" xmlns="http://www.w3.org/2000/svg" viewBox="0 0 300.09 258.62"><path d="M7.78,239.53c.21-6.48.22-11.18.6-15.85a9.73,9.73,0,0,1,1.83-4.94c2.73-3.54,5.93-6.72,8.65-10.28,1.08-1.41,1.36-3.43,2-5.16.33-.82.51-2,1.13-2.36,9.16-5.23,11.17-15.64,16.81-23.4,1-1.41.28-4.36-.14-6.5-2.8-14.47-3-28.89.57-43.26a9.71,9.71,0,0,1,2.75-5l2,11c-2.36-19.47,11.29-27.89,25.53-37.75,1.22,4.81,2.15,8.44,3.07,12.08.3-.16.84-.31.84-.45C73,96,79.27,88.68,88.93,83.21c6.14-3.47,11.83-7.74,18.77-12.35l-3.49,10.8c6.14-17.38,23-22,36.72-32.1-.33,2.46-.48,3.62-.63,4.77,4.93-9.44,14.52-10.51,24.51-14.69l-4.1,12.27C171,36.83,187.33,33.2,203.92,28.41l-1.33,4.12c7.62-6.79,17.11-7.84,27.6-9.92l-3.09,5.1c20.11-13,42.57-9.61,64.32-11l.89,2.32c-3.73,2.56-7.14,5.95-11.25,7.47-5.77,2.14-8.75,7.61-14.08,10.07-5.82,2.68-11.48,5.69-16.2,8l4.31.53c-7.36,5-13.5,10.15-20.47,13.64s-14.77,5.31-22.77,6.92l9,.5c-11.44,7.41-21.46,14.81-32.37,20.54-4.75,2.48-11.31,1.51-17.87,2.19l11.36,1.36.47,1.48c-8.63,6.8-14.92,17.53-28.88,16.17l5.29,3.23c-6,4.78-11.07,10.86-17.54,13.42s-14.29,1.59-21.52,3.07h17.7C134,137.94,128,141,103,146.9l17.62-1.32.73,1.12c-7.43,7.71-14.46,15.85-22.39,23-8.74,7.88-19.72,6.5-30.62,5.72l7.72,3.39v1c-6.14.55-12.29,1.61-18.41,1.48-5.64-.12-8.95,2.11-11.58,6.8-3.85,6.87-8.24,13.18-10.53,21.12-2,7.05-7.48,13.11-12,20.51l7.33-19.2-1.29-.57c-5.73,10.16-7.47,23-20,28.61l1.27,1.37c3.4-.42,6.81-1.17,10.21-1.19,29.3-.12,58.6.15,87.9-.22,23.69-.3,47.39-1,71-2.26,7.27-.4,14.5-3.09,21.57-5.33,4.6-1.45,7.14-5.14,7.33-10.22.18-4.84-2.76-7.68-6.46-9.69-12.45-6.73-26-8.06-39.7-6.42-8,1-15.83,3.77-23.57,6.29-1.87.61-4.35,3.47-4.2,5.09s2.87,3.76,4.91,4.56c12.25,4.8,24.92,3.92,37.55,1.9,4.25-.68,8.4-2,12.6-3l.06-1.67L184,214.43c.37-.1.81-.37,1-.25,2.26,1.32,4.48,2.71,6.71,4.08-2.07,1.57-3.92,3.92-6.25,4.58A87.33,87.33,0,0,1,145.08,225c-2-.37-4.23-.76-5.8-1.91-2.69-2-6.64-4.37-6.89-6.9s2.88-6.34,5.53-7.9c13.08-7.7,27.65-8.75,42.29-7.16a91.43,91.43,0,0,1,22.11,5.48c6,2.28,11,6.6,10.75,14.19s-4.47,12.73-11.21,14.43c-11.5,2.89-23.28,6.25-35,6.41-40.13.57-80.28-.16-120.42-.43-11-.07-22-.2-33.05-.51A24.41,24.41,0,0,1,7.78,239.53Zm23.56-42.3,1.32,1.41c1.19-1,2.76-1.87,3.53-3.17,14-23.59,31.17-44.61,50.15-64.33,34.25-35.59,72-66.12,118.52-84.45q14.4-5.69,28.8-11.33c-49,12.58-90.73,38.41-127.5,72.24C77.36,134.12,50.44,162.53,31.34,197.23Z"/></svg>