<svg width="709" height="705" viewBox="0 0 709 705" fill="none" xmlns="http://www.w3.org/2000/svg">
<g clip-path="url(#clip0)">
<path d="M385.631 441.443C425.131 545.61 460.297 668.61 422.797 697.277C385.131 725.943 274.797 660.277 174.964 586.443C75.2975 512.443 -13.8692 430.11 1.79745 358.777C17.4641 287.61 137.964 227.277 220.131 239.61C302.297 252.11 346.131 337.277 385.631 441.443Z" fill="#F0D5B3" fill-opacity="0.6"/>
</g>
<path d="M323.142 203.443C283.642 307.61 248.475 430.61 285.975 459.277C323.642 487.943 433.975 422.277 533.808 348.443C633.475 274.443 722.642 192.11 706.975 120.777C691.308 49.6099 570.808 -10.7234 488.642 1.60995C406.475 14.11 362.642 99.2766 323.142 203.443Z" fill="#F0D5B3"/>
<defs>
<clipPath id="clip0">
<rect y="238" width="438.773" height="466.149" fill="white"/>
</clipPath>
</defs>
</svg>
