<?xml version="1.0" encoding="iso-8859-1"?>
<!-- Generator: Adobe Illustrator 19.0.0, SVG Export Plug-In . SVG Version: 6.00 Build 0)  -->
<svg version="1.1" id="Capa_1" xmlns="http://www.w3.org/2000/svg" xmlns:xlink="http://www.w3.org/1999/xlink" x="0px" y="0px"
	 viewBox="0 0 392.56 392.56" style="enable-background:new 0 0 392.56 392.56;" xml:space="preserve">
<g>
	<g>
		<path d="M392.08,347.16l-33.52-92.32c-0.307-3.53-1.58-6.907-3.68-9.76c2.392-3.275,3.681-7.225,3.68-11.28V42.68
			c-0.044-10.661-8.699-19.28-19.36-19.28H53.36c-10.661,0-19.316,8.619-19.36,19.28V233.8c0.005,4.054,1.293,8.003,3.68,11.28
			c-2.104,2.851-3.377,6.229-3.68,9.76L0.48,347.16c-0.317,0.872-0.479,1.792-0.48,2.72c0.044,10.63,8.65,19.236,19.28,19.28h354
			c10.63-0.044,19.236-8.65,19.28-19.28C392.559,348.952,392.397,348.032,392.08,347.16z M50,42.68
			c0.043-1.824,1.535-3.281,3.36-3.28h285.92c1.825,0,3.317,1.456,3.36,3.28V233.8c0,1.856-1.504,3.36-3.36,3.36H53.36
			c-1.856,0-3.36-1.504-3.36-3.36V42.68z M49.52,259.16c0.316-0.872,0.479-1.792,0.48-2.72c0-1.856,1.504-3.36,3.36-3.36h285.92
			c1.856,0,3.36,1.504,3.36,3.36c0.001,0.928,0.164,1.848,0.48,2.72l11.04,30.4H38.48L49.52,259.16z M232.8,353.24h-72.96v-22.48
			h72.96V353.24z M373.28,353.24H248.8v-24c-0.515-8.348-7.646-14.73-16-14.32h-72.96c-8.354-0.41-15.485,5.972-16,14.32v24H19.36
			c-1.457,0.002-2.749-0.935-3.2-2.32l16.48-45.28H360l16.48,45.28C376.029,352.305,374.737,353.242,373.28,353.24z"/>
	</g>
</g>
<g>
	<g>
		<path d="M308.32,57.24h-224c-8.837,0-16,7.163-16,16v130c0,8.837,7.163,16,16,16h224c8.837,0,16-7.163,16-16v-130
			C324.32,64.403,317.157,57.24,308.32,57.24z M308.32,203.24h-224v-130h224V203.24z"/>
	</g>
</g>
<g>
</g>
<g>
</g>
<g>
</g>
<g>
</g>
<g>
</g>
<g>
</g>
<g>
</g>
<g>
</g>
<g>
</g>
<g>
</g>
<g>
</g>
<g>
</g>
<g>
</g>
<g>
</g>
<g>
</g>
</svg>
