<?xml version="1.0" encoding="iso-8859-1"?>
<!-- Generator: Adobe Illustrator 19.0.0, SVG Export Plug-In . SVG Version: 6.00 Build 0)  -->
<svg version="1.1" id="Capa_1" xmlns="http://www.w3.org/2000/svg" xmlns:xlink="http://www.w3.org/1999/xlink" x="0px" y="0px"
	 viewBox="0 0 347.044 347.044" style="enable-background:new 0 0 347.044 347.044;" xml:space="preserve">
<g>
	<g>
		<path d="M328.322,7.044c-2-5.6-7.6-8.4-13.2-6.4l-197.6,66.4c-4,1.2-7.2,5.2-7.2,10v187.2c-9.6-6.8-22-10.8-35.6-10.8
			c-15.2,0-28.8,4.8-38.8,12.8c-10.8,8.4-17.6,20.4-17.6,33.6c0.4,13.6,6.8,25.6,17.6,34.4c10,8,24,12.8,38.8,12.8
			c15.2,0,28.8-4.8,38.8-12.8c10.8-8.4,17.6-20.4,17.6-33.6c0-0.4,0-0.4,0-0.8v-130.8l176.4-59.6v88c-9.6-6.4-22-10.4-35.2-10.4
			c-15.2,0-28.8,4.8-38.8,12.8c-10.8,8.4-17.6,20.4-17.6,33.6s6.8,25.2,17.6,33.6c10,8,24,12.8,38.8,12.8c15.2,0,28.8-4.8,38.8-12.8
			c10.8-8.4,17.6-20.4,17.6-33.6v-223.2C328.722,9.044,328.722,7.844,328.322,7.044z M100.722,317.844c-6.4,5.2-15.6,8.4-26,8.4
			c-10.4,0-19.6-3.2-26-8.4c-6-4.8-9.6-10.8-9.6-17.6c0.4-6.8,4-12.8,9.6-17.6c6.4-5.2,15.6-8.4,26-8.4c10.4,0,19.6,3.2,26,8.4
			c6,4.8,9.6,10.8,9.6,17.6S106.722,313.044,100.722,317.844z M131.122,147.044v-62.8l176.4-59.6v62.8L131.122,147.044z
			 M298.322,251.444c-6.4,5.2-15.6,8.4-26,8.4c-10.4,0-19.6-3.2-26-8.4c-6-4.8-9.6-10.8-9.6-17.6c0-6.8,3.6-12.8,9.6-17.6
			c6.4-5.2,15.6-8.4,26-8.4c10.4,0,19.6,3.2,26,8.4c6,4.8,9.6,10.8,9.6,17.6C307.522,240.644,303.922,246.644,298.322,251.444z"/>
	</g>
</g>
<g>
</g>
<g>
</g>
<g>
</g>
<g>
</g>
<g>
</g>
<g>
</g>
<g>
</g>
<g>
</g>
<g>
</g>
<g>
</g>
<g>
</g>
<g>
</g>
<g>
</g>
<g>
</g>
<g>
</g>
</svg>
