<?xml version="1.0" encoding="iso-8859-1"?>
<!-- Generator: Adobe Illustrator 19.0.0, SVG Export Plug-In . SVG Version: 6.00 Build 0)  -->
<svg version="1.1" id="Capa_1" xmlns="http://www.w3.org/2000/svg" xmlns:xlink="http://www.w3.org/1999/xlink" x="0px" y="0px"
	 viewBox="0 0 346.4 346.4" style="enable-background:new 0 0 346.4 346.4;" xml:space="preserve">
<g>
	<g>
		<path d="M308,144c0-26.4-9.2-50.8-24.8-70c0-0.4,0.4-0.8,0.4-1.2v-66c0-3.6-2.8-6.4-6.4-6.4h-41.6c-3.6,0-6.4,2.8-6.4,6.4V38
			c-6-2-12.4-3.2-19.2-4c-3.2-17.2-18.8-30.4-36.8-30.4S139.6,16.8,136.4,34c-6.4,0.8-12.8,2-18.8,3.6V6.4c0-3.6-2.8-6.4-6.4-6.4H70
			c-3.6,0-6.4,2.8-6.4,6.4v66c0,0.4,0,0.4,0,0.8c-16,19.2-25.2,43.6-25.2,70l-6.8,130.4c0,64,53.2,72.8,110.4,72.8h62.4
			c57.2,0,110.4-8.8,110.4-72.8L308,144z M241.6,13.2h28.8v48.4c-8.4-7.6-18.4-14-28.8-18.8V13.2z M173.2,16.8
			c10.8,0,20,7.2,23.6,16.8h-47.2C153.2,23.6,162.4,16.8,173.2,16.8z M76.4,13.2h28.8v29.6c-10.8,4.8-20.4,10.8-28.8,18.4V13.2z
			 M138.4,46.4c0,0,5.5-0.5,7.6-0.4c0.8,0,2,0,2.8,0h48.8c0.8,0,8.2,0.2,10.4,0.4c46.8,4.8,84,43.2,87.2,91.2H216
			c-2.8-11.6-13.2-20-25.6-20h-31.2c-12.4,0-22.8,8.4-25.6,20H51.2C54.4,90,91.2,51.6,138.4,46.4z M204.4,144
			c0,7.6-6,13.6-13.6,13.6h-31.2c-7.6,0-13.6-6-13.6-13.6c0-7.6,6-13.6,13.6-13.6h31.2C198.4,130.4,204.4,136.4,204.4,144z
			 M204.4,334H142c-60.4,0-98-10-98-59.6l6.8-124h83.6c2.8,11.6,13.2,20,25.6,20h31.2c12.4,0,22.8-8.4,25.6-20h79.6l6.8,123.6
			C302.4,324,264.8,334,204.4,334z"/>
	</g>
</g>
<g>
	<g>
		<path d="M192.8,193.2h-35.2c-36.4,0-65.2,17.2-65.2,39.6v33.6c0,21.2,25.6,35.2,65.2,35.2h35.2c39.6,0,65.2-13.6,65.2-35.2v-33.6
			C258,210.8,229.2,193.2,192.8,193.2z M157.6,206h35.2c26.4,0,45.2,9.6,50.8,20.4H106.8C112,215.6,131.2,206,157.6,206z
			 M245.2,266.4c0,13.2-22,22.4-52.4,22.4h-35.2c-30.4,0-52.4-9.6-52.4-22.4v-27.2h140V266.4z"/>
	</g>
</g>
<g>
</g>
<g>
</g>
<g>
</g>
<g>
</g>
<g>
</g>
<g>
</g>
<g>
</g>
<g>
</g>
<g>
</g>
<g>
</g>
<g>
</g>
<g>
</g>
<g>
</g>
<g>
</g>
<g>
</g>
</svg>
